M48
;Layer_Color=9474304
;FILE_FORMAT=2:5
INCH,LZ
;TYPE=PLATED
T1F00S00C0.03000
T2F00S00C0.03150
T3F00S00C0.03346
T4F00S00C0.03543
T5F00S00C0.12598
%
T01
X011Y001
X012
X013
X014
X015
X016
X017
X018
X02
X021
X022
X023
X024
X025
X019Y02
X018
X0164
X0154
X0144
X0134
X0124
X0114
X0104
X0094
X0084
X0074
X02
X021
X022
X023
X024
X025
T02
X02175Y0105
Y011
Y0115
X0144843Y0155
X0125157
T03
X0195Y0045
X02125
Y0075
X0195
Y0105
X0165
X01525Y008
X01775Y00775
Y00475
X01525Y005
X01575Y01475
Y01775
T04
X026Y01
Y011
X01275
Y012
Y013
X00975
Y012
Y011
Y01
Y009
Y008
Y007
X01275
Y008
Y009
Y01
T05
X0055Y001
X026Y003
Y014
X006Y02
M30
