G04 Layer_Physical_Order=2*
G04 Layer_Color=16711680*
%FSLAX25Y25*%
%MOIN*%
G70*
G01*
G75*
%ADD10C,0.02000*%
%ADD11C,0.05512*%
%ADD12R,0.05906X0.05906*%
%ADD13C,0.05906*%
%ADD14O,0.07874X0.03937*%
%ADD15O,0.07874X0.03937*%
%ADD16R,0.05906X0.05906*%
%ADD17C,0.05315*%
%ADD18R,0.05315X0.05315*%
%ADD19R,0.06000X0.06000*%
%ADD20C,0.06000*%
%ADD21C,0.12598*%
G36*
X260000Y200000D02*
Y160000D01*
X270000Y150000D01*
Y15000D01*
X260000Y5000D01*
Y0D01*
X0D01*
Y210000D01*
X250000D01*
X260000Y200000D01*
D02*
G37*
%LPC*%
G36*
X127000Y99500D02*
X123579D01*
X123649Y98968D01*
X124047Y98007D01*
X124681Y97181D01*
X125507Y96547D01*
X126468Y96149D01*
X127000Y96079D01*
Y99500D01*
D02*
G37*
G36*
X131421D02*
X128000D01*
Y96079D01*
X128532Y96149D01*
X129493Y96547D01*
X130319Y97181D01*
X130953Y98007D01*
X131351Y98968D01*
X131421Y99500D01*
D02*
G37*
G36*
X127000Y103921D02*
X126468Y103851D01*
X125507Y103453D01*
X124681Y102819D01*
X124047Y101993D01*
X123649Y101032D01*
X123579Y100500D01*
X127000D01*
Y103921D01*
D02*
G37*
G36*
X97500Y123987D02*
X96468Y123851D01*
X95507Y123453D01*
X94681Y122819D01*
X94047Y121993D01*
X93649Y121032D01*
X93513Y120000D01*
X93642Y119025D01*
X91058Y116442D01*
X90616Y115780D01*
X90461Y115000D01*
Y107000D01*
X90616Y106220D01*
X91058Y105558D01*
X93058Y103558D01*
X93720Y103116D01*
X94204Y103020D01*
X94415Y102473D01*
X94047Y101993D01*
X93649Y101032D01*
X93513Y100000D01*
X93649Y98968D01*
X94047Y98007D01*
X94415Y97527D01*
X94204Y96980D01*
X93720Y96884D01*
X93058Y96442D01*
X91058Y94442D01*
X90616Y93780D01*
X90461Y93000D01*
Y65000D01*
X90616Y64220D01*
X91058Y63558D01*
X106058Y48558D01*
X106720Y48116D01*
X107500Y47961D01*
X149330D01*
X149821Y47321D01*
X150606Y46719D01*
X151520Y46341D01*
X152500Y46212D01*
X153481Y46341D01*
X154394Y46719D01*
X155179Y47321D01*
X155781Y48106D01*
X156159Y49020D01*
X156288Y50000D01*
X156159Y50981D01*
X155781Y51894D01*
X155179Y52679D01*
X154394Y53281D01*
X153718Y53561D01*
X153817Y54061D01*
X183055D01*
X191317Y45799D01*
X191212Y45000D01*
X191341Y44019D01*
X191719Y43106D01*
X192321Y42321D01*
X193106Y41719D01*
X194019Y41341D01*
X195000Y41212D01*
X195981Y41341D01*
X196894Y41719D01*
X197679Y42321D01*
X198170Y42961D01*
X209331D01*
X209821Y42321D01*
X210606Y41719D01*
X211520Y41341D01*
X212500Y41212D01*
X213480Y41341D01*
X214394Y41719D01*
X215179Y42321D01*
X215781Y43106D01*
X216159Y44019D01*
X216288Y45000D01*
X216159Y45981D01*
X215781Y46894D01*
X215179Y47679D01*
X214394Y48281D01*
X213480Y48659D01*
X212500Y48788D01*
X211520Y48659D01*
X210606Y48281D01*
X209821Y47679D01*
X209331Y47039D01*
X198170D01*
X197679Y47679D01*
X196894Y48281D01*
X195981Y48659D01*
X195000Y48788D01*
X194201Y48683D01*
X186285Y56599D01*
X186476Y57061D01*
X214655D01*
X222961Y48755D01*
Y13400D01*
X222461Y13154D01*
X222017Y13494D01*
X221044Y13897D01*
X220000Y14035D01*
X218983Y13901D01*
X183942Y48942D01*
X183280Y49384D01*
X182500Y49539D01*
X180669D01*
X180179Y50179D01*
X179394Y50781D01*
X178481Y51159D01*
X177500Y51288D01*
X176520Y51159D01*
X175606Y50781D01*
X174821Y50179D01*
X174219Y49394D01*
X173841Y48480D01*
X173712Y47500D01*
X173841Y46520D01*
X174219Y45606D01*
X174821Y44821D01*
X175606Y44219D01*
X176520Y43841D01*
X177500Y43712D01*
X178481Y43841D01*
X179394Y44219D01*
X180179Y44821D01*
X180669Y45461D01*
X181655D01*
X216099Y11017D01*
X215966Y10000D01*
X216103Y8956D01*
X216506Y7983D01*
X216846Y7539D01*
X216600Y7039D01*
X213400D01*
X213154Y7539D01*
X213494Y7983D01*
X213897Y8956D01*
X214035Y10000D01*
X213897Y11044D01*
X213494Y12017D01*
X212853Y12853D01*
X212017Y13494D01*
X211044Y13897D01*
X210000Y14035D01*
X208956Y13897D01*
X207983Y13494D01*
X207147Y12853D01*
X206506Y12017D01*
X206103Y11044D01*
X205965Y10000D01*
X206103Y8956D01*
X206506Y7983D01*
X206846Y7539D01*
X206600Y7039D01*
X205845D01*
X204000Y8884D01*
Y14000D01*
X196000D01*
Y6000D01*
X201116D01*
X203558Y3558D01*
X204220Y3116D01*
X205000Y2961D01*
X223000D01*
X223780Y3116D01*
X224442Y3558D01*
X226442Y5558D01*
X226884Y6220D01*
X226970Y6653D01*
X227521Y6860D01*
X227983Y6506D01*
X228956Y6103D01*
X230000Y5965D01*
X231044Y6103D01*
X232017Y6506D01*
X232853Y7147D01*
X233494Y7983D01*
X233897Y8956D01*
X234034Y10000D01*
X233897Y11044D01*
X233494Y12017D01*
X232853Y12853D01*
X232017Y13494D01*
X231044Y13897D01*
X230000Y14035D01*
X228956Y13897D01*
X227983Y13494D01*
X227539Y13154D01*
X227039Y13400D01*
Y49600D01*
X226884Y50380D01*
X226442Y51042D01*
X216942Y60542D01*
X216280Y60984D01*
X215500Y61139D01*
X174245D01*
X156183Y79201D01*
X156288Y80000D01*
X156159Y80980D01*
X155781Y81894D01*
X155346Y82461D01*
X155593Y82961D01*
X201655D01*
X208817Y75799D01*
X208712Y75000D01*
X208841Y74019D01*
X209219Y73106D01*
X209501Y72739D01*
X209254Y72239D01*
X198246D01*
X197999Y72739D01*
X198281Y73106D01*
X198659Y74019D01*
X198723Y74500D01*
X195000D01*
X191278D01*
X191341Y74019D01*
X191719Y73106D01*
X192001Y72739D01*
X191754Y72239D01*
X185645D01*
X181183Y76701D01*
X181288Y77500D01*
X181159Y78480D01*
X180781Y79394D01*
X180179Y80179D01*
X179394Y80781D01*
X178481Y81159D01*
X177500Y81288D01*
X176520Y81159D01*
X175606Y80781D01*
X174821Y80179D01*
X174219Y79394D01*
X173841Y78480D01*
X173712Y77500D01*
X173841Y76520D01*
X174219Y75606D01*
X174821Y74821D01*
X175606Y74219D01*
X176520Y73841D01*
X177500Y73712D01*
X178299Y73817D01*
X183358Y68758D01*
X184020Y68316D01*
X184800Y68161D01*
X214500D01*
X215280Y68316D01*
X215942Y68758D01*
X218742Y71558D01*
X219184Y72220D01*
X219339Y73000D01*
Y86800D01*
X219184Y87580D01*
X218742Y88242D01*
X211842Y95142D01*
X211180Y95584D01*
X210400Y95739D01*
X196845D01*
X192239Y100345D01*
Y101754D01*
X192739Y102001D01*
X193106Y101719D01*
X194019Y101341D01*
X195000Y101212D01*
X195981Y101341D01*
X196894Y101719D01*
X197679Y102321D01*
X198170Y102961D01*
X213354D01*
X213414Y102883D01*
X214034Y102407D01*
X214757Y102108D01*
X215531Y102006D01*
X219468D01*
X220243Y102108D01*
X220966Y102407D01*
X221586Y102883D01*
X222061Y103503D01*
X222361Y104225D01*
X222463Y105000D01*
X222361Y105775D01*
X222061Y106497D01*
X221586Y107117D01*
X221412Y107250D01*
Y107750D01*
X221586Y107883D01*
X222061Y108503D01*
X222361Y109225D01*
X222463Y110000D01*
X222361Y110775D01*
X222061Y111497D01*
X221586Y112117D01*
X221575Y112125D01*
X221550Y112691D01*
X221825Y112961D01*
X244155D01*
X256047Y101069D01*
Y96047D01*
X263953D01*
Y103953D01*
X258931D01*
X246442Y116442D01*
X245780Y116884D01*
X245000Y117039D01*
X221645D01*
X221586Y117117D01*
X220966Y117593D01*
X220243Y117892D01*
X219468Y117994D01*
X215531D01*
X214757Y117892D01*
X214034Y117593D01*
X213414Y117117D01*
X212938Y116497D01*
X212639Y115775D01*
X212537Y115000D01*
X212639Y114225D01*
X212938Y113503D01*
X213414Y112883D01*
X213424Y112875D01*
X213450Y112309D01*
X213175Y112039D01*
X190400D01*
X189620Y111884D01*
X188958Y111442D01*
X188758Y111242D01*
X188316Y110580D01*
X188161Y109800D01*
Y99500D01*
X188316Y98720D01*
X188758Y98058D01*
X194558Y92258D01*
X195220Y91816D01*
X196000Y91661D01*
X209555D01*
X215261Y85955D01*
Y78246D01*
X214761Y77999D01*
X214394Y78281D01*
X213480Y78659D01*
X212500Y78788D01*
X211701Y78683D01*
X203942Y86442D01*
X203280Y86884D01*
X202500Y87039D01*
X130841D01*
X130594Y87539D01*
X130953Y88007D01*
X131351Y88968D01*
X131487Y90000D01*
X131351Y91032D01*
X130953Y91993D01*
X130319Y92819D01*
X129493Y93453D01*
X128532Y93851D01*
X127500Y93987D01*
X126468Y93851D01*
X125507Y93453D01*
X124681Y92819D01*
X124047Y91993D01*
X123649Y91032D01*
X123513Y90000D01*
X123649Y88968D01*
X124047Y88007D01*
X124406Y87539D01*
X124159Y87039D01*
X123545D01*
X104142Y106442D01*
X103480Y106884D01*
X102700Y107039D01*
X100841D01*
X100594Y107539D01*
X100953Y108007D01*
X101351Y108968D01*
X101487Y110000D01*
X101351Y111032D01*
X100953Y111993D01*
X100319Y112819D01*
X99493Y113453D01*
X98532Y113851D01*
X97500Y113987D01*
X96468Y113851D01*
X95507Y113453D01*
X95039Y113094D01*
X94539Y113341D01*
Y114155D01*
X96525Y116141D01*
X97500Y116013D01*
X98532Y116149D01*
X99493Y116547D01*
X100319Y117181D01*
X100953Y118007D01*
X101351Y118968D01*
X101487Y120000D01*
X101351Y121032D01*
X100953Y121993D01*
X100319Y122819D01*
X99493Y123453D01*
X98532Y123851D01*
X97500Y123987D01*
D02*
G37*
G36*
X260000Y37334D02*
X258569Y37194D01*
X257193Y36776D01*
X255925Y36098D01*
X254814Y35186D01*
X253902Y34075D01*
X253224Y32807D01*
X252806Y31431D01*
X252665Y30000D01*
X252806Y28569D01*
X253224Y27193D01*
X253902Y25925D01*
X254814Y24814D01*
X255925Y23902D01*
X257193Y23224D01*
X258569Y22806D01*
X260000Y22666D01*
X261431Y22806D01*
X262807Y23224D01*
X264075Y23902D01*
X265186Y24814D01*
X266098Y25925D01*
X266776Y27193D01*
X267194Y28569D01*
X267335Y30000D01*
X267194Y31431D01*
X266776Y32807D01*
X266098Y34075D01*
X265186Y35186D01*
X264075Y36098D01*
X262807Y36776D01*
X261431Y37194D01*
X260000Y37334D01*
D02*
G37*
G36*
X194500Y78723D02*
X194019Y78659D01*
X193106Y78281D01*
X192321Y77679D01*
X191719Y76894D01*
X191341Y75981D01*
X191278Y75500D01*
X194500D01*
Y78723D01*
D02*
G37*
G36*
X195500D02*
Y75500D01*
X198723D01*
X198659Y75981D01*
X198281Y76894D01*
X197679Y77679D01*
X196894Y78281D01*
X195981Y78659D01*
X195500Y78723D01*
D02*
G37*
G36*
X259500Y109500D02*
X256079D01*
X256149Y108968D01*
X256547Y108007D01*
X257181Y107181D01*
X258007Y106547D01*
X258968Y106149D01*
X259500Y106079D01*
Y109500D01*
D02*
G37*
G36*
X263921D02*
X260500D01*
Y106079D01*
X261032Y106149D01*
X261993Y106547D01*
X262819Y107181D01*
X263453Y108007D01*
X263851Y108968D01*
X263921Y109500D01*
D02*
G37*
G36*
X107969Y199500D02*
X104500D01*
Y196031D01*
X105017Y196099D01*
X142687Y158430D01*
X142654Y157931D01*
X142234Y157608D01*
X141648Y156844D01*
X141279Y155955D01*
X141219Y155500D01*
X144843D01*
Y155000D01*
X145343D01*
Y151377D01*
X145797Y151437D01*
X146687Y151805D01*
X147451Y152392D01*
X147783Y152824D01*
X149107Y152763D01*
X149153Y152770D01*
X149200Y152761D01*
X214355D01*
X256141Y110975D01*
X256079Y110500D01*
X259500D01*
Y113921D01*
X259025Y113858D01*
X216642Y156242D01*
X215980Y156684D01*
X215200Y156839D01*
X150045D01*
X148363Y158521D01*
X148363Y158521D01*
X107901Y198983D01*
X107969Y199500D01*
D02*
G37*
G36*
X127500Y113987D02*
X126468Y113851D01*
X125507Y113453D01*
X124681Y112819D01*
X124047Y111993D01*
X123649Y111032D01*
X123513Y110000D01*
X123649Y108968D01*
X124047Y108007D01*
X124681Y107181D01*
X125507Y106547D01*
X126468Y106149D01*
X127500Y106013D01*
X128532Y106149D01*
X129493Y106547D01*
X130319Y107181D01*
X130953Y108007D01*
X131351Y108968D01*
X131487Y110000D01*
X131351Y111032D01*
X130953Y111993D01*
X130319Y112819D01*
X129493Y113453D01*
X128532Y113851D01*
X127500Y113987D01*
D02*
G37*
G36*
X168722Y104500D02*
X165500D01*
Y101277D01*
X165981Y101341D01*
X166894Y101719D01*
X167679Y102321D01*
X168281Y103106D01*
X168659Y104019D01*
X168722Y104500D01*
D02*
G37*
G36*
X164500Y108722D02*
X164020Y108659D01*
X163106Y108281D01*
X162321Y107679D01*
X161830Y107039D01*
X132500D01*
X131720Y106884D01*
X131058Y106442D01*
X128475Y103858D01*
X128000Y103921D01*
Y100500D01*
X131421D01*
X131359Y100975D01*
X133345Y102961D01*
X161830D01*
X162321Y102321D01*
X163106Y101719D01*
X164020Y101341D01*
X164500Y101277D01*
Y105000D01*
Y108722D01*
D02*
G37*
G36*
X165500D02*
Y105500D01*
X168722D01*
X168659Y105981D01*
X168281Y106894D01*
X167679Y107679D01*
X166894Y108281D01*
X165981Y108659D01*
X165500Y108722D01*
D02*
G37*
G36*
X140000Y14035D02*
X138956Y13897D01*
X137983Y13494D01*
X137147Y12853D01*
X136506Y12017D01*
X136103Y11044D01*
X135966Y10000D01*
X136103Y8956D01*
X136506Y7983D01*
X137147Y7147D01*
X137983Y6506D01*
X138956Y6103D01*
X140000Y5965D01*
X141044Y6103D01*
X142017Y6506D01*
X142853Y7147D01*
X143494Y7983D01*
X143897Y8956D01*
X144035Y10000D01*
X143897Y11044D01*
X143494Y12017D01*
X142853Y12853D01*
X142017Y13494D01*
X141044Y13897D01*
X140000Y14035D01*
D02*
G37*
G36*
X150000D02*
X148956Y13897D01*
X147983Y13494D01*
X147147Y12853D01*
X146506Y12017D01*
X146103Y11044D01*
X145966Y10000D01*
X146103Y8956D01*
X146506Y7983D01*
X147147Y7147D01*
X147983Y6506D01*
X148956Y6103D01*
X150000Y5965D01*
X151044Y6103D01*
X152017Y6506D01*
X152853Y7147D01*
X153494Y7983D01*
X153897Y8956D01*
X154034Y10000D01*
X153897Y11044D01*
X153494Y12017D01*
X152853Y12853D01*
X152017Y13494D01*
X151044Y13897D01*
X150000Y14035D01*
D02*
G37*
G36*
X170000D02*
X168956Y13897D01*
X167983Y13494D01*
X167147Y12853D01*
X166506Y12017D01*
X166103Y11044D01*
X165965Y10000D01*
X166103Y8956D01*
X166506Y7983D01*
X167147Y7147D01*
X167983Y6506D01*
X168956Y6103D01*
X170000Y5965D01*
X171044Y6103D01*
X172017Y6506D01*
X172853Y7147D01*
X173494Y7983D01*
X173897Y8956D01*
X174035Y10000D01*
X173897Y11044D01*
X173494Y12017D01*
X172853Y12853D01*
X172017Y13494D01*
X171044Y13897D01*
X170000Y14035D01*
D02*
G37*
G36*
X130000D02*
X128956Y13897D01*
X127983Y13494D01*
X127147Y12853D01*
X126506Y12017D01*
X126103Y11044D01*
X125965Y10000D01*
X126103Y8956D01*
X126506Y7983D01*
X127147Y7147D01*
X127983Y6506D01*
X128956Y6103D01*
X130000Y5965D01*
X131044Y6103D01*
X132017Y6506D01*
X132853Y7147D01*
X133494Y7983D01*
X133897Y8956D01*
X134035Y10000D01*
X133897Y11044D01*
X133494Y12017D01*
X132853Y12853D01*
X132017Y13494D01*
X131044Y13897D01*
X130000Y14035D01*
D02*
G37*
G36*
X55000Y17334D02*
X53569Y17194D01*
X52193Y16776D01*
X50925Y16098D01*
X49814Y15186D01*
X48902Y14075D01*
X48224Y12807D01*
X47806Y11431D01*
X47666Y10000D01*
X47806Y8569D01*
X48224Y7193D01*
X48902Y5925D01*
X49814Y4814D01*
X50925Y3902D01*
X52193Y3224D01*
X53569Y2806D01*
X55000Y2665D01*
X56431Y2806D01*
X57807Y3224D01*
X59075Y3902D01*
X60186Y4814D01*
X61098Y5925D01*
X61776Y7193D01*
X62194Y8569D01*
X62335Y10000D01*
X62194Y11431D01*
X61776Y12807D01*
X61098Y14075D01*
X60186Y15186D01*
X59075Y16098D01*
X57807Y16776D01*
X56431Y17194D01*
X55000Y17334D01*
D02*
G37*
G36*
X110000Y14035D02*
X108956Y13897D01*
X107983Y13494D01*
X107147Y12853D01*
X106506Y12017D01*
X106103Y11044D01*
X105965Y10000D01*
X106103Y8956D01*
X106506Y7983D01*
X107147Y7147D01*
X107983Y6506D01*
X108956Y6103D01*
X110000Y5965D01*
X111044Y6103D01*
X112017Y6506D01*
X112853Y7147D01*
X113494Y7983D01*
X113897Y8956D01*
X114034Y10000D01*
X113897Y11044D01*
X113494Y12017D01*
X112853Y12853D01*
X112017Y13494D01*
X111044Y13897D01*
X110000Y14035D01*
D02*
G37*
G36*
X120000D02*
X118956Y13897D01*
X117983Y13494D01*
X117147Y12853D01*
X116506Y12017D01*
X116103Y11044D01*
X115965Y10000D01*
X116103Y8956D01*
X116506Y7983D01*
X117147Y7147D01*
X117983Y6506D01*
X118956Y6103D01*
X120000Y5965D01*
X121044Y6103D01*
X122017Y6506D01*
X122853Y7147D01*
X123494Y7983D01*
X123897Y8956D01*
X124035Y10000D01*
X123897Y11044D01*
X123494Y12017D01*
X122853Y12853D01*
X122017Y13494D01*
X121044Y13897D01*
X120000Y14035D01*
D02*
G37*
G36*
X163969Y9500D02*
X160500D01*
Y6031D01*
X161044Y6103D01*
X162017Y6506D01*
X162853Y7147D01*
X163494Y7983D01*
X163897Y8956D01*
X163969Y9500D01*
D02*
G37*
G36*
X159500Y13969D02*
X158956Y13897D01*
X157983Y13494D01*
X157147Y12853D01*
X156506Y12017D01*
X156103Y11044D01*
X156031Y10500D01*
X159500D01*
Y13969D01*
D02*
G37*
G36*
X160500D02*
Y10500D01*
X163969D01*
X163897Y11044D01*
X163494Y12017D01*
X162853Y12853D01*
X162017Y13494D01*
X161044Y13897D01*
X160500Y13969D01*
D02*
G37*
G36*
X159500Y9500D02*
X156031D01*
X156103Y8956D01*
X156506Y7983D01*
X157147Y7147D01*
X157983Y6506D01*
X158956Y6103D01*
X159500Y6031D01*
Y9500D01*
D02*
G37*
G36*
X240000Y14035D02*
X238956Y13897D01*
X237983Y13494D01*
X237147Y12853D01*
X236506Y12017D01*
X236103Y11044D01*
X235965Y10000D01*
X236103Y8956D01*
X236506Y7983D01*
X237147Y7147D01*
X237983Y6506D01*
X238956Y6103D01*
X240000Y5965D01*
X241044Y6103D01*
X242017Y6506D01*
X242853Y7147D01*
X243494Y7983D01*
X243897Y8956D01*
X244035Y10000D01*
X243897Y11044D01*
X243494Y12017D01*
X242853Y12853D01*
X242017Y13494D01*
X241044Y13897D01*
X240000Y14035D01*
D02*
G37*
G36*
X250000D02*
X248956Y13897D01*
X247983Y13494D01*
X247147Y12853D01*
X246506Y12017D01*
X246103Y11044D01*
X245966Y10000D01*
X246103Y8956D01*
X246506Y7983D01*
X247147Y7147D01*
X247983Y6506D01*
X248956Y6103D01*
X250000Y5965D01*
X251044Y6103D01*
X252017Y6506D01*
X252853Y7147D01*
X253494Y7983D01*
X253897Y8956D01*
X254034Y10000D01*
X253897Y11044D01*
X253494Y12017D01*
X252853Y12853D01*
X252017Y13494D01*
X251044Y13897D01*
X250000Y14035D01*
D02*
G37*
G36*
X184000Y14000D02*
X176000D01*
Y6000D01*
X184000D01*
Y14000D01*
D02*
G37*
G36*
X190000Y204034D02*
X188956Y203897D01*
X187983Y203494D01*
X187147Y202853D01*
X186506Y202017D01*
X186103Y201044D01*
X185966Y200000D01*
X186103Y198956D01*
X186506Y197983D01*
X187147Y197147D01*
X187983Y196506D01*
X188956Y196103D01*
X190000Y195966D01*
X191044Y196103D01*
X192017Y196506D01*
X192853Y197147D01*
X193494Y197983D01*
X193897Y198956D01*
X194035Y200000D01*
X193897Y201044D01*
X193494Y202017D01*
X192853Y202853D01*
X192017Y203494D01*
X191044Y203897D01*
X190000Y204034D01*
D02*
G37*
G36*
X200000D02*
X198956Y203897D01*
X197983Y203494D01*
X197147Y202853D01*
X196506Y202017D01*
X196103Y201044D01*
X195966Y200000D01*
X196103Y198956D01*
X196506Y197983D01*
X197147Y197147D01*
X197983Y196506D01*
X198956Y196103D01*
X200000Y195966D01*
X201044Y196103D01*
X202017Y196506D01*
X202853Y197147D01*
X203494Y197983D01*
X203897Y198956D01*
X204034Y200000D01*
X203897Y201044D01*
X203494Y202017D01*
X202853Y202853D01*
X202017Y203494D01*
X201044Y203897D01*
X200000Y204034D01*
D02*
G37*
G36*
X210000D02*
X208956Y203897D01*
X207983Y203494D01*
X207147Y202853D01*
X206506Y202017D01*
X206103Y201044D01*
X205965Y200000D01*
X206103Y198956D01*
X206506Y197983D01*
X207147Y197147D01*
X207983Y196506D01*
X208956Y196103D01*
X210000Y195966D01*
X211044Y196103D01*
X212017Y196506D01*
X212853Y197147D01*
X213494Y197983D01*
X213897Y198956D01*
X214035Y200000D01*
X213897Y201044D01*
X213494Y202017D01*
X212853Y202853D01*
X212017Y203494D01*
X211044Y203897D01*
X210000Y204034D01*
D02*
G37*
G36*
X180000D02*
X178956Y203897D01*
X177983Y203494D01*
X177147Y202853D01*
X176506Y202017D01*
X176103Y201044D01*
X175965Y200000D01*
X176103Y198956D01*
X176506Y197983D01*
X177147Y197147D01*
X177983Y196506D01*
X178956Y196103D01*
X180000Y195966D01*
X181044Y196103D01*
X182017Y196506D01*
X182853Y197147D01*
X183494Y197983D01*
X183897Y198956D01*
X184035Y200000D01*
X183897Y201044D01*
X183494Y202017D01*
X182853Y202853D01*
X182017Y203494D01*
X181044Y203897D01*
X180000Y204034D01*
D02*
G37*
G36*
X134000D02*
X132956Y203897D01*
X131983Y203494D01*
X131147Y202853D01*
X130506Y202017D01*
X130103Y201044D01*
X129965Y200000D01*
X130103Y198956D01*
X130506Y197983D01*
X131147Y197147D01*
X131983Y196506D01*
X132956Y196103D01*
X134000Y195966D01*
X135044Y196103D01*
X136017Y196506D01*
X136853Y197147D01*
X137494Y197983D01*
X137897Y198956D01*
X138034Y200000D01*
X137897Y201044D01*
X137494Y202017D01*
X136853Y202853D01*
X136017Y203494D01*
X135044Y203897D01*
X134000Y204034D01*
D02*
G37*
G36*
X144000D02*
X142956Y203897D01*
X141983Y203494D01*
X141147Y202853D01*
X140506Y202017D01*
X140103Y201044D01*
X139965Y200000D01*
X140103Y198956D01*
X140506Y197983D01*
X141147Y197147D01*
X141983Y196506D01*
X142956Y196103D01*
X144000Y195966D01*
X145044Y196103D01*
X146017Y196506D01*
X146853Y197147D01*
X147494Y197983D01*
X147897Y198956D01*
X148035Y200000D01*
X147897Y201044D01*
X147494Y202017D01*
X146853Y202853D01*
X146017Y203494D01*
X145044Y203897D01*
X144000Y204034D01*
D02*
G37*
G36*
X154000D02*
X152956Y203897D01*
X151983Y203494D01*
X151147Y202853D01*
X150506Y202017D01*
X150103Y201044D01*
X149966Y200000D01*
X150103Y198956D01*
X150506Y197983D01*
X151147Y197147D01*
X151983Y196506D01*
X152956Y196103D01*
X154000Y195966D01*
X155044Y196103D01*
X156017Y196506D01*
X156853Y197147D01*
X157494Y197983D01*
X157897Y198956D01*
X158035Y200000D01*
X157897Y201044D01*
X157494Y202017D01*
X156853Y202853D01*
X156017Y203494D01*
X155044Y203897D01*
X154000Y204034D01*
D02*
G37*
G36*
X220000D02*
X218956Y203897D01*
X217983Y203494D01*
X217147Y202853D01*
X216506Y202017D01*
X216103Y201044D01*
X215966Y200000D01*
X216103Y198956D01*
X216506Y197983D01*
X217147Y197147D01*
X217983Y196506D01*
X218956Y196103D01*
X220000Y195966D01*
X221044Y196103D01*
X222017Y196506D01*
X222853Y197147D01*
X223494Y197983D01*
X223897Y198956D01*
X224035Y200000D01*
X223897Y201044D01*
X223494Y202017D01*
X222853Y202853D01*
X222017Y203494D01*
X221044Y203897D01*
X220000Y204034D01*
D02*
G37*
G36*
X103500Y199500D02*
X100031D01*
X100103Y198956D01*
X100506Y197983D01*
X101147Y197147D01*
X101983Y196506D01*
X102956Y196103D01*
X103500Y196031D01*
Y199500D01*
D02*
G37*
G36*
Y203969D02*
X102956Y203897D01*
X101983Y203494D01*
X101147Y202853D01*
X100506Y202017D01*
X100103Y201044D01*
X100031Y200500D01*
X103500D01*
Y203969D01*
D02*
G37*
G36*
X104500D02*
Y200500D01*
X107969D01*
X107897Y201044D01*
X107494Y202017D01*
X106853Y202853D01*
X106017Y203494D01*
X105044Y203897D01*
X104500Y203969D01*
D02*
G37*
G36*
X254000Y204000D02*
X246000D01*
Y196000D01*
X254000D01*
Y204000D01*
D02*
G37*
G36*
X230000Y204034D02*
X228956Y203897D01*
X227983Y203494D01*
X227147Y202853D01*
X226506Y202017D01*
X226103Y201044D01*
X225965Y200000D01*
X226103Y198956D01*
X226506Y197983D01*
X227147Y197147D01*
X227983Y196506D01*
X228956Y196103D01*
X230000Y195966D01*
X231044Y196103D01*
X232017Y196506D01*
X232853Y197147D01*
X233494Y197983D01*
X233897Y198956D01*
X234034Y200000D01*
X233897Y201044D01*
X233494Y202017D01*
X232853Y202853D01*
X232017Y203494D01*
X231044Y203897D01*
X230000Y204034D01*
D02*
G37*
G36*
X240000D02*
X238956Y203897D01*
X237983Y203494D01*
X237147Y202853D01*
X236506Y202017D01*
X236103Y201044D01*
X235965Y200000D01*
X236103Y198956D01*
X236506Y197983D01*
X237147Y197147D01*
X237983Y196506D01*
X238956Y196103D01*
X240000Y195966D01*
X241044Y196103D01*
X242017Y196506D01*
X242853Y197147D01*
X243494Y197983D01*
X243897Y198956D01*
X244035Y200000D01*
X243897Y201044D01*
X243494Y202017D01*
X242853Y202853D01*
X242017Y203494D01*
X241044Y203897D01*
X240000Y204034D01*
D02*
G37*
G36*
X168000Y204000D02*
X160000D01*
Y196000D01*
X168000D01*
Y204000D01*
D02*
G37*
G36*
X124000Y204034D02*
X122956Y203897D01*
X121983Y203494D01*
X121147Y202853D01*
X120506Y202017D01*
X120103Y201044D01*
X119966Y200000D01*
X120103Y198956D01*
X120506Y197983D01*
X121147Y197147D01*
X121983Y196506D01*
X122956Y196103D01*
X124000Y195966D01*
X125044Y196103D01*
X126017Y196506D01*
X126853Y197147D01*
X127494Y197983D01*
X127897Y198956D01*
X128034Y200000D01*
X127897Y201044D01*
X127494Y202017D01*
X126853Y202853D01*
X126017Y203494D01*
X125044Y203897D01*
X124000Y204034D01*
D02*
G37*
G36*
X260000Y147335D02*
X258569Y147194D01*
X257193Y146776D01*
X255925Y146098D01*
X254814Y145186D01*
X253902Y144075D01*
X253224Y142807D01*
X252806Y141431D01*
X252665Y140000D01*
X252806Y138569D01*
X253224Y137193D01*
X253902Y135925D01*
X254814Y134814D01*
X255925Y133902D01*
X257193Y133224D01*
X258569Y132806D01*
X260000Y132666D01*
X261431Y132806D01*
X262807Y133224D01*
X264075Y133902D01*
X265186Y134814D01*
X266098Y135925D01*
X266776Y137193D01*
X267194Y138569D01*
X267335Y140000D01*
X267194Y141431D01*
X266776Y142807D01*
X266098Y144075D01*
X265186Y145186D01*
X264075Y146098D01*
X262807Y146776D01*
X261431Y147194D01*
X260000Y147335D01*
D02*
G37*
G36*
X128815Y158658D02*
X121500D01*
Y151342D01*
X125931D01*
X131216Y146058D01*
X131877Y145616D01*
X132657Y145461D01*
X154331D01*
X154821Y144821D01*
X155606Y144219D01*
X156519Y143841D01*
X157500Y143712D01*
X158481Y143841D01*
X159394Y144219D01*
X160179Y144821D01*
X160781Y145606D01*
X161159Y146519D01*
X161288Y147500D01*
X161159Y148480D01*
X160781Y149394D01*
X160179Y150179D01*
X159394Y150781D01*
X158481Y151159D01*
X157500Y151288D01*
X156519Y151159D01*
X155606Y150781D01*
X154821Y150179D01*
X154331Y149539D01*
X133502D01*
X128815Y154226D01*
Y158658D01*
D02*
G37*
G36*
X144343Y154500D02*
X141219D01*
X141279Y154045D01*
X141648Y153156D01*
X142234Y152392D01*
X142998Y151805D01*
X143888Y151437D01*
X144343Y151377D01*
Y154500D01*
D02*
G37*
G36*
X101453Y133953D02*
X93547D01*
Y126047D01*
X101453D01*
Y133953D01*
D02*
G37*
G36*
X260500Y113921D02*
Y110500D01*
X263921D01*
X263851Y111032D01*
X263453Y111993D01*
X262819Y112819D01*
X261993Y113453D01*
X261032Y113851D01*
X260500Y113921D01*
D02*
G37*
G36*
X127500Y123987D02*
X126468Y123851D01*
X125507Y123453D01*
X124681Y122819D01*
X124047Y121993D01*
X123649Y121032D01*
X123513Y120000D01*
X123649Y118968D01*
X124047Y118007D01*
X124681Y117181D01*
X125507Y116547D01*
X126468Y116149D01*
X127500Y116013D01*
X128532Y116149D01*
X129493Y116547D01*
X130319Y117181D01*
X130953Y118007D01*
X131351Y118968D01*
X131487Y120000D01*
X131351Y121032D01*
X130953Y121993D01*
X130319Y122819D01*
X129493Y123453D01*
X128532Y123851D01*
X127500Y123987D01*
D02*
G37*
G36*
Y133987D02*
X126468Y133851D01*
X125507Y133453D01*
X124681Y132819D01*
X124047Y131993D01*
X123649Y131032D01*
X123513Y130000D01*
X123649Y128968D01*
X124047Y128007D01*
X124681Y127181D01*
X125507Y126547D01*
X126468Y126149D01*
X127500Y126013D01*
X128532Y126149D01*
X129493Y126547D01*
X130319Y127181D01*
X130953Y128007D01*
X131351Y128968D01*
X131487Y130000D01*
X131351Y131032D01*
X130953Y131993D01*
X130319Y132819D01*
X129493Y133453D01*
X128532Y133851D01*
X127500Y133987D01*
D02*
G37*
G36*
X157500Y181288D02*
X156519Y181159D01*
X155606Y180781D01*
X154821Y180179D01*
X154219Y179394D01*
X153841Y178481D01*
X153712Y177500D01*
X153841Y176520D01*
X154219Y175606D01*
X154821Y174821D01*
X155606Y174219D01*
X156519Y173841D01*
X157500Y173712D01*
X158481Y173841D01*
X159394Y174219D01*
X160179Y174821D01*
X160781Y175606D01*
X161159Y176520D01*
X161288Y177500D01*
X161159Y178481D01*
X160781Y179394D01*
X160179Y180179D01*
X159394Y180781D01*
X158481Y181159D01*
X157500Y181288D01*
D02*
G37*
G36*
X94000Y204034D02*
X92956Y203897D01*
X91983Y203494D01*
X91147Y202853D01*
X90506Y202017D01*
X90103Y201044D01*
X89965Y200000D01*
X90103Y198956D01*
X90506Y197983D01*
X91147Y197147D01*
X91983Y196506D01*
X92956Y196103D01*
X94000Y195966D01*
X95044Y196103D01*
X96017Y196506D01*
X96853Y197147D01*
X97494Y197983D01*
X97897Y198956D01*
X98035Y200000D01*
X97897Y201044D01*
X97494Y202017D01*
X96853Y202853D01*
X96017Y203494D01*
X95044Y203897D01*
X94000Y204034D01*
D02*
G37*
G36*
X114000D02*
X112956Y203897D01*
X111983Y203494D01*
X111147Y202853D01*
X110506Y202017D01*
X110103Y201044D01*
X109966Y200000D01*
X110103Y198956D01*
X110506Y197983D01*
X111147Y197147D01*
X111983Y196506D01*
X112956Y196103D01*
X114000Y195966D01*
X115044Y196103D01*
X116017Y196506D01*
X116853Y197147D01*
X117494Y197983D01*
X117897Y198956D01*
X118035Y200000D01*
X117897Y201044D01*
X117494Y202017D01*
X116853Y202853D01*
X116017Y203494D01*
X115044Y203897D01*
X114000Y204034D01*
D02*
G37*
G36*
X84000D02*
X82956Y203897D01*
X81983Y203494D01*
X81147Y202853D01*
X80506Y202017D01*
X80103Y201044D01*
X79966Y200000D01*
X80103Y198956D01*
X80506Y197983D01*
X81147Y197147D01*
X81983Y196506D01*
X82956Y196103D01*
X84000Y195966D01*
X85044Y196103D01*
X86017Y196506D01*
X86853Y197147D01*
X87494Y197983D01*
X87897Y198956D01*
X88034Y200000D01*
X87897Y201044D01*
X87494Y202017D01*
X86853Y202853D01*
X86017Y203494D01*
X85044Y203897D01*
X84000Y204034D01*
D02*
G37*
G36*
X60000Y207334D02*
X58569Y207194D01*
X57193Y206776D01*
X55925Y206098D01*
X54814Y205186D01*
X53902Y204075D01*
X53224Y202807D01*
X52806Y201431D01*
X52666Y200000D01*
X52806Y198569D01*
X53224Y197193D01*
X53902Y195925D01*
X54814Y194814D01*
X55925Y193902D01*
X57193Y193224D01*
X58569Y192806D01*
X60000Y192666D01*
X61431Y192806D01*
X62807Y193224D01*
X64075Y193902D01*
X65186Y194814D01*
X66098Y195925D01*
X66776Y197193D01*
X67194Y198569D01*
X67335Y200000D01*
X67194Y201431D01*
X66776Y202807D01*
X66098Y204075D01*
X65186Y205186D01*
X64075Y206098D01*
X62807Y206776D01*
X61431Y207194D01*
X60000Y207334D01*
D02*
G37*
G36*
X74000Y204034D02*
X72956Y203897D01*
X71983Y203494D01*
X71147Y202853D01*
X70506Y202017D01*
X70103Y201044D01*
X69965Y200000D01*
X70103Y198956D01*
X70506Y197983D01*
X71147Y197147D01*
X71983Y196506D01*
X72956Y196103D01*
X74000Y195966D01*
X75044Y196103D01*
X76017Y196506D01*
X76853Y197147D01*
X77494Y197983D01*
X77897Y198956D01*
X78035Y200000D01*
X77897Y201044D01*
X77494Y202017D01*
X76853Y202853D01*
X76017Y203494D01*
X75044Y203897D01*
X74000Y204034D01*
D02*
G37*
%LPD*%
G36*
X121258Y83558D02*
X121920Y83116D01*
X122700Y82961D01*
X124159D01*
X124406Y82461D01*
X124047Y81993D01*
X123649Y81032D01*
X123513Y80000D01*
X123649Y78968D01*
X124047Y78007D01*
X124681Y77181D01*
X125507Y76547D01*
X126468Y76149D01*
X127500Y76013D01*
X128532Y76149D01*
X129493Y76547D01*
X130319Y77181D01*
X130953Y78007D01*
X131351Y78968D01*
X131487Y80000D01*
X131351Y81032D01*
X130953Y81993D01*
X130594Y82461D01*
X130841Y82961D01*
X149407D01*
X149654Y82461D01*
X149219Y81894D01*
X148841Y80980D01*
X148712Y80000D01*
X148841Y79019D01*
X149219Y78106D01*
X149821Y77321D01*
X150606Y76719D01*
X151520Y76341D01*
X152500Y76212D01*
X153299Y76317D01*
X171015Y58601D01*
X170824Y58139D01*
X132245D01*
X101358Y89025D01*
X101487Y90000D01*
X101351Y91032D01*
X100953Y91993D01*
X100594Y92461D01*
X100841Y92961D01*
X101655D01*
X123642Y70975D01*
X123513Y70000D01*
X123649Y68968D01*
X124047Y68007D01*
X124681Y67181D01*
X125507Y66547D01*
X126468Y66149D01*
X127500Y66013D01*
X128532Y66149D01*
X129493Y66547D01*
X130319Y67181D01*
X130953Y68007D01*
X131351Y68968D01*
X131487Y70000D01*
X131351Y71032D01*
X130953Y71993D01*
X130319Y72819D01*
X129493Y73453D01*
X128532Y73851D01*
X127500Y73987D01*
X126525Y73858D01*
X103942Y96442D01*
X103280Y96884D01*
X102500Y97039D01*
X100841D01*
X100594Y97539D01*
X100953Y98007D01*
X101351Y98968D01*
X101487Y100000D01*
X101351Y101032D01*
X100953Y101993D01*
X100594Y102461D01*
X100841Y102961D01*
X101855D01*
X121258Y83558D01*
D02*
G37*
G36*
X95507Y86547D02*
X96468Y86149D01*
X97500Y86013D01*
X98475Y86142D01*
X129958Y54658D01*
X130620Y54216D01*
X131400Y54061D01*
X151182D01*
X151282Y53561D01*
X150606Y53281D01*
X149821Y52679D01*
X149330Y52039D01*
X108345D01*
X94539Y65845D01*
Y66659D01*
X95039Y66906D01*
X95507Y66547D01*
X96468Y66149D01*
X97500Y66013D01*
X98532Y66149D01*
X99493Y66547D01*
X100319Y67181D01*
X100953Y68007D01*
X101351Y68968D01*
X101487Y70000D01*
X101351Y71032D01*
X100953Y71993D01*
X100319Y72819D01*
X99493Y73453D01*
X98532Y73851D01*
X97500Y73987D01*
X96468Y73851D01*
X95507Y73453D01*
X95039Y73094D01*
X94539Y73341D01*
Y76659D01*
X95039Y76906D01*
X95507Y76547D01*
X96468Y76149D01*
X97500Y76013D01*
X98532Y76149D01*
X99493Y76547D01*
X100319Y77181D01*
X100953Y78007D01*
X101351Y78968D01*
X101487Y80000D01*
X101351Y81032D01*
X100953Y81993D01*
X100319Y82819D01*
X99493Y83453D01*
X98532Y83851D01*
X97500Y83987D01*
X96468Y83851D01*
X95507Y83453D01*
X95039Y83094D01*
X94539Y83341D01*
Y86659D01*
X95039Y86906D01*
X95507Y86547D01*
D02*
G37*
D10*
X146921Y157079D02*
X149200Y154800D01*
X104000Y200000D02*
X146921Y157079D01*
X144843Y155000D02*
X149200Y154800D01*
X215200D01*
X200000Y10000D02*
X205000Y5000D01*
X223000D01*
X225000Y7000D01*
X215500Y59100D02*
X225000Y49600D01*
X173400Y59100D02*
X215500D01*
X125157Y155000D02*
X132657Y147500D01*
X214500Y70200D02*
X217300Y73000D01*
Y86800D01*
X196000Y93700D02*
X210400D01*
X190200Y99500D02*
X196000Y93700D01*
X190200Y99500D02*
Y109800D01*
X190400Y110000D01*
X195000Y105000D02*
X217500D01*
X92500Y107000D02*
Y115000D01*
X122700Y85000D02*
X202500D01*
X212500Y75000D01*
X107500Y50000D02*
X152500D01*
X92500Y65000D02*
Y93000D01*
X94500Y95000D01*
X102500D02*
X127500Y70000D01*
X215200Y154800D02*
X260000Y110000D01*
X132657Y147500D02*
X157500D01*
X127500Y100000D02*
X132500Y105000D01*
X165000D01*
X177500Y47500D02*
X182500D01*
X220000Y10000D01*
X225000Y7000D02*
Y49600D01*
X152500Y80000D02*
X173400Y59100D01*
X177500Y77500D02*
X184800Y70200D01*
X214500D01*
X210400Y93700D02*
X217300Y86800D01*
X190400Y110000D02*
X217500D01*
Y115000D02*
X245000D01*
X260000Y100000D01*
X97500Y90000D02*
X131400Y56100D01*
X183900D01*
X195000Y45000D01*
X212500D01*
X92500Y115000D02*
X97500Y120000D01*
X92500Y107000D02*
X94500Y105000D01*
X102700D01*
X122700Y85000D01*
X92500Y65000D02*
X107500Y50000D01*
X94500Y95000D02*
X102500D01*
D11*
X152500Y80000D02*
D03*
Y50000D02*
D03*
X177500Y47500D02*
D03*
Y77500D02*
D03*
X195000Y75000D02*
D03*
Y45000D02*
D03*
X212500Y75000D02*
D03*
Y45000D02*
D03*
X165000Y105000D02*
D03*
X195000D02*
D03*
X157500Y147500D02*
D03*
Y177500D02*
D03*
D12*
X97500Y130000D02*
D03*
D13*
Y120000D02*
D03*
Y110000D02*
D03*
Y100000D02*
D03*
Y90000D02*
D03*
Y80000D02*
D03*
Y70000D02*
D03*
X127500Y130000D02*
D03*
Y120000D02*
D03*
Y110000D02*
D03*
Y100000D02*
D03*
Y90000D02*
D03*
Y80000D02*
D03*
Y70000D02*
D03*
X260000Y110000D02*
D03*
D14*
X217500Y115000D02*
D03*
D15*
Y110000D02*
D03*
Y105000D02*
D03*
D16*
X260000Y100000D02*
D03*
D17*
X144843Y155000D02*
D03*
D18*
X125157D02*
D03*
D19*
X200000Y10000D02*
D03*
X164000Y200000D02*
D03*
X250000D02*
D03*
X180000Y10000D02*
D03*
D20*
X210000D02*
D03*
X220000D02*
D03*
X230000D02*
D03*
X240000D02*
D03*
X250000D02*
D03*
X154000Y200000D02*
D03*
X144000D02*
D03*
X134000D02*
D03*
X124000D02*
D03*
X114000D02*
D03*
X104000D02*
D03*
X94000D02*
D03*
X84000D02*
D03*
X74000D02*
D03*
X220000D02*
D03*
X210000D02*
D03*
X200000D02*
D03*
X190000D02*
D03*
X180000D02*
D03*
X240000D02*
D03*
X230000D02*
D03*
X150000Y10000D02*
D03*
X140000D02*
D03*
X130000D02*
D03*
X120000D02*
D03*
X110000D02*
D03*
X170000D02*
D03*
X160000D02*
D03*
D21*
X260000Y30000D02*
D03*
Y140000D02*
D03*
X55000Y10000D02*
D03*
X60000Y200000D02*
D03*
M02*
