G04 Layer_Color=0*
%FSLAX25Y25*%
%MOIN*%
G70*
G01*
G75*
%ADD11C,0.05512*%
%ADD12R,0.05906X0.05906*%
%ADD13C,0.05906*%
%ADD14O,0.07874X0.03937*%
%ADD15O,0.07874X0.03937*%
%ADD16R,0.05906X0.05906*%
%ADD17C,0.05315*%
%ADD18R,0.05315X0.05315*%
%ADD19R,0.06000X0.06000*%
%ADD20C,0.06000*%
%ADD21C,0.12598*%
D11*
X152500Y80000D02*
D03*
Y50000D02*
D03*
X177500Y47500D02*
D03*
Y77500D02*
D03*
X195000Y75000D02*
D03*
Y45000D02*
D03*
X212500Y75000D02*
D03*
Y45000D02*
D03*
X165000Y105000D02*
D03*
X195000D02*
D03*
X157500Y147500D02*
D03*
Y177500D02*
D03*
D12*
X97500Y130000D02*
D03*
D13*
Y120000D02*
D03*
Y110000D02*
D03*
Y100000D02*
D03*
Y90000D02*
D03*
Y80000D02*
D03*
Y70000D02*
D03*
X127500Y130000D02*
D03*
Y120000D02*
D03*
Y110000D02*
D03*
Y100000D02*
D03*
Y90000D02*
D03*
Y80000D02*
D03*
Y70000D02*
D03*
X260000Y110000D02*
D03*
D14*
X217500Y115000D02*
D03*
D15*
Y110000D02*
D03*
Y105000D02*
D03*
D16*
X260000Y100000D02*
D03*
D17*
X144843Y155000D02*
D03*
D18*
X125157D02*
D03*
D19*
X200000Y10000D02*
D03*
X164000Y200000D02*
D03*
X250000D02*
D03*
X180000Y10000D02*
D03*
D20*
X210000D02*
D03*
X220000D02*
D03*
X230000D02*
D03*
X240000D02*
D03*
X250000D02*
D03*
X154000Y200000D02*
D03*
X144000D02*
D03*
X134000D02*
D03*
X124000D02*
D03*
X114000D02*
D03*
X104000D02*
D03*
X94000D02*
D03*
X84000D02*
D03*
X74000D02*
D03*
X220000D02*
D03*
X210000D02*
D03*
X200000D02*
D03*
X190000D02*
D03*
X180000D02*
D03*
X240000D02*
D03*
X230000D02*
D03*
X150000Y10000D02*
D03*
X140000D02*
D03*
X130000D02*
D03*
X120000D02*
D03*
X110000D02*
D03*
X170000D02*
D03*
X160000D02*
D03*
D21*
X260000Y30000D02*
D03*
Y140000D02*
D03*
X55000Y10000D02*
D03*
X60000Y200000D02*
D03*
M02*
